<?xml version="1.0" encoding="UTF-8"?>
<!DOCTYPE svg PUBLIC "-//W3C//DTD SVG 1.1//EN" "http://www.w3.org/Graphics/SVG/1.1/DTD/svg11.dtd">
<!-- Creator: CorelDRAW -->
<svg xmlns="http://www.w3.org/2000/svg" xml:space="preserve" width="512px" height="512px" version="1.1" style="shape-rendering:geometricPrecision; text-rendering:geometricPrecision; image-rendering:optimizeQuality; fill-rule:evenodd; clip-rule:evenodd"
viewBox="0 0 512 512"
 xmlns:xlink="http://www.w3.org/1999/xlink">
 <defs>
  <style type="text/css">
   <![CDATA[
    .fil0 {fill:black}
   ]]>
  </style>
 </defs>
 <g id="Layer_x0020_1">
  <metadata id="CorelCorpID_0Corel-Layer"/>
  <g id="_642566648">
   <g>
    <g>
     <path class="fil0" d="M164 406c-34,0 -60,-16 -77,-37 -20,-26 -29,-62 -25,-99 5,-40 26,-76 58,-102 2,-2 4,-2 7,-2 2,1 4,4 4,6 3,20 11,33 18,41 6,-44 21,-77 48,-102 25,-23 60,-39 109,-48 109,-21 161,-61 162,-62 1,-1 4,-1 6,-1 2,1 3,2 4,4 17,30 23,67 17,106 -5,29 -14,49 -15,50 -18,38 -55,66 -107,79 -23,6 -44,8 -58,9 11,8 29,15 41,18 2,1 4,2 4,4 1,2 1,4 1,6 -25,54 -70,60 -119,62 14,9 26,11 27,11 2,1 4,3 5,6 1,2 0,5 -3,7 -41,31 -77,44 -107,44zm-44 -220c-25,23 -40,53 -44,86 -4,33 4,65 22,88 16,20 38,31 64,32 27,0 58,-11 90,-33 -10,-4 -23,-11 -36,-22 -2,-1 -3,-4 -2,-7 0,-3 3,-5 6,-5 3,0 5,0 8,0 51,-2 93,-3 116,-48 -14,-4 -42,-16 -50,-33 -1,-2 -1,-5 0,-7 2,-2 4,-3 6,-3 1,0 33,1 70,-8 49,-13 81,-37 98,-72 0,0 9,-19 13,-47 3,-23 4,-57 -11,-90 -18,12 -71,42 -162,60 -96,18 -140,63 -146,152 0,2 -1,4 -4,5 -2,1 -5,1 -7,0 -1,-1 -23,-16 -31,-48z"/>
    </g>
    <g>
     <path class="fil0" d="M22 512c-1,0 -2,0 -2,0 -4,-2 -6,-6 -4,-10 17,-43 46,-86 87,-127 3,-3 7,-3 10,0 3,3 3,7 0,10 -39,39 -68,81 -84,123 -1,2 -4,4 -7,4z"/>
    </g>
    <g>
     <path class="fil0" d="M390 193c-2,0 -4,-1 -6,-3 -2,-3 -1,-8 2,-10 37,-24 52,-57 57,-80 1,-3 5,-6 9,-5 4,1 6,5 5,9 -6,25 -22,61 -63,88 -1,1 -3,1 -4,1z"/>
    </g>
   </g>
  </g>
 </g>
</svg>
