<?xml version="1.0" encoding="UTF-8" standalone="no"?> <svg width="64" height="64" viewBox="0 0 64 64" fill="none" xmlns="http://www.w3.org/2000/svg">
<path d="M61 51H3L9 39H55L61 51Z" fill="#ACABB1"/>
<path d="M55 5V39H9V5C9.00158 4.47005 9.2128 3.96227 9.58753 3.58753C9.96227 3.2128 10.4701 3.00158 11 3H53C53.5299 3.00158 54.0377 3.2128 54.4125 3.58753C54.7872 3.96227 54.9984 4.47005 55 5V5Z" fill="#C6C5CA"/>
<path d="M61 51V55C60.9984 55.5299 60.7872 56.0377 60.4125 56.4125C60.0377 56.7872 59.5299 56.9984 59 57H5C4.47005 56.9984 3.96227 56.7872 3.58753 56.4125C3.2128 56.0377 3.00158 55.5299 3 55V51H61Z" fill="#898890"/>
<path d="M38 47L40 51H24L26 47H38Z" fill="#C6C5CA"/>
<path d="M26 49V51H24L25.6 47.8C25.8589 48.1466 25.9991 48.5674 26 49V49Z" fill="#ACABB1"/>
<path d="M51 7H13V35H51V7Z" fill="#5AAAE7"/>
<path d="M43 22C44.0609 22 45.0783 21.5786 45.8284 20.8284C46.5786 20.0783 47 19.0609 47 18V16H45C43.9391 16 42.9217 16.4214 42.1716 17.1716C41.4214 17.9217 41 18.9391 41 20V22H43Z" fill="#3D9AE2"/>
<path d="M39 20H41V18C41 16.9391 40.5786 15.9217 39.8284 15.1716C39.0783 14.4214 38.0609 14 37 14H35V16C35 17.0609 35.4214 18.0783 36.1716 18.8284C36.9217 19.5786 37.9391 20 39 20Z" fill="#3D9AE2"/>
<path d="M47 31C47.5299 31.0016 48.0377 31.2128 48.4125 31.5875C48.7872 31.9623 48.9984 32.4701 49 33V35H33V33C33.0016 32.4701 33.2128 31.9623 33.5875 31.5875C33.9623 31.2128 34.4701 31.0016 35 31C34.4701 30.9984 33.9623 30.7872 33.5875 30.4125C33.2128 30.0377 33.0016 29.5299 33 29V27C33.0016 26.4701 33.2128 25.9623 33.5875 25.5875C33.9623 25.2128 34.4701 25.0016 35 25H47C47.5299 25.0016 48.0377 25.2128 48.4125 25.5875C48.7872 25.9623 48.9984 26.4701 49 27V29C48.9984 29.5299 48.7872 30.0377 48.4125 30.4125C48.0377 30.7872 47.5299 30.9984 47 31V31Z" fill="#3D9AE2"/>
<path d="M45 29C45.5299 29.0016 46.0377 29.2128 46.4125 29.5875C46.7872 29.9623 46.9984 30.4701 47 31V33C46.9984 33.5299 46.7872 34.0377 46.4125 34.4125C46.0377 34.7872 45.5299 34.9984 45 35H33C32.4701 34.9984 31.9623 34.7872 31.5875 34.4125C31.2128 34.0377 31.0016 33.5299 31 33V31C31.0016 30.4701 31.2128 29.9623 31.5875 29.5875C31.9623 29.2128 32.4701 29.0016 33 29H45Z" fill="#FF9811"/>
<path d="M45 23C45.5299 23.0016 46.0377 23.2128 46.4125 23.5875C46.7872 23.9623 46.9984 24.4701 47 25V27C46.9984 27.5299 46.7872 28.0377 46.4125 28.4125C46.0377 28.7872 45.5299 28.9984 45 29H33C32.4701 28.9984 31.9623 28.7872 31.5875 28.4125C31.2128 28.0377 31.0016 27.5299 31 27V25C31.0016 24.4701 31.2128 23.9623 31.5875 23.5875C31.9623 23.2128 32.4701 23.0016 33 23H45Z" fill="#EE8700"/>
<path d="M12 49C11.4708 49.0039 10.9643 49.2159 10.5901 49.5901C10.2159 49.9644 10.0039 50.4708 10 51H14C13.9984 50.4701 13.7872 49.9623 13.4125 49.5875C13.0377 49.2128 12.5299 49.0016 12 49Z" fill="#787680"/>
<path d="M10 51V57H26V51H14H10Z" fill="#787680"/>
<path d="M24 47C23.4708 47.0039 22.9643 47.2159 22.5901 47.5901C22.2159 47.9644 22.0039 48.4708 22 49C21.9984 48.4701 21.7872 47.9623 21.4125 47.5875C21.0377 47.2128 20.5299 47.0016 20 47C19.4708 47.0039 18.9643 47.2159 18.5901 47.5901C18.2159 47.9644 18.0039 48.4708 18 49V50C17.9984 49.4701 17.7872 48.9623 17.4125 48.5875C17.0377 48.2128 16.5299 48.0016 16 48C15.4708 48.0039 14.9643 48.2159 14.5901 48.5901C14.2159 48.9644 14.0039 49.4708 14 50V51H26V49C25.9984 48.4701 25.7872 47.9623 25.4125 47.5875C25.0377 47.2128 24.5299 47.0016 24 47V47Z" fill="#898890"/>
<path d="M26 49V51H24L25.6 47.8C25.8589 48.1466 25.9991 48.5674 26 49V49Z" fill="#ACABB1"/>
<path d="M31.46 55.54C31.5926 55.3124 31.679 55.0607 31.7141 54.7996C31.7492 54.5384 31.7323 54.2729 31.6645 54.0183C31.5967 53.7637 31.4792 53.525 31.3188 53.3159C31.1584 53.1068 30.9583 52.9315 30.73 52.8C30.4297 52.624 30.0881 52.5309 29.74 52.53C29.3866 52.5296 29.0394 52.6229 28.7338 52.8003C28.4281 52.9777 28.1749 53.233 28 53.54L26 57H30.62L31.46 55.54Z" fill="#787680"/>
<path d="M38.26 52.53C37.9119 52.5309 37.5703 52.624 37.27 52.8C37.0417 52.9315 36.8416 53.1068 36.6812 53.3159C36.5208 53.525 36.4033 53.7637 36.3355 54.0183C36.2677 54.2729 36.2508 54.5384 36.2859 54.7996C36.321 55.0607 36.4074 55.3124 36.54 55.54L37.38 57H42L40 53.54C39.8251 53.233 39.5719 52.9777 39.2662 52.8003C38.9606 52.6229 38.6134 52.5296 38.26 52.53Z" fill="#787680"/>
<path d="M56 49C55.4701 49.0016 54.9623 49.2128 54.5875 49.5875C54.2128 49.9623 54.0016 50.4701 54 51H58C57.9961 50.4708 57.7841 49.9644 57.4099 49.5901C57.0356 49.2159 56.5292 49.0039 56 49V49Z" fill="#898890"/>
<path d="M42 51V57H58V51H54H42Z" fill="#787680"/>
<path d="M54 50C53.9961 49.4708 53.7841 48.9644 53.4099 48.5901C53.0356 48.2159 52.5292 48.0039 52 48C51.4701 48.0016 50.9623 48.2128 50.5875 48.5875C50.2128 48.9623 50.0016 49.4701 50 50V49C49.9961 48.4708 49.7841 47.9644 49.4099 47.5901C49.0356 47.2159 48.5292 47.0039 48 47C47.4701 47.0016 46.9623 47.2128 46.5875 47.5875C46.2128 47.9623 46.0016 48.4701 46 49C45.9961 48.4708 45.7841 47.9644 45.4099 47.5901C45.0356 47.2159 44.5292 47.0039 44 47C43.4701 47.0016 42.9623 47.2128 42.5875 47.5875C42.2128 47.9623 42.0016 48.4701 42 49V51H54V50Z" fill="#787680"/>
<path d="M20 47C20.0039 46.4708 20.2159 45.9644 20.5901 45.5901C20.9643 45.2159 21.4708 45.0039 22 45C22.5299 45.0016 23.0377 45.2128 23.4125 45.5875C23.7872 45.9623 23.9984 46.4701 24 47V55L26 51.54C26.1749 51.2329 26.4281 50.9777 26.7338 50.8003C27.0394 50.6229 27.3866 50.5296 27.74 50.53C28.0881 50.5308 28.4297 50.624 28.73 50.8C28.9583 50.9315 29.1584 51.1068 29.3188 51.3159C29.4792 51.525 29.5967 51.7637 29.6645 52.0183C29.7323 52.2729 29.7492 52.5384 29.7141 52.7995C29.679 53.0607 29.5926 53.3123 29.46 53.54L24.58 62H8V49C8.00393 48.4708 8.2159 47.9644 8.59012 47.5901C8.96435 47.2159 9.47078 47.0039 10 47C10.5299 47.0016 11.0377 47.2128 11.4125 47.5875C11.7872 47.9623 11.9984 48.4701 12 49V48C12.0039 47.4708 12.2159 46.9644 12.5901 46.5901C12.9643 46.2159 13.4708 46.0039 14 46C14.5299 46.0016 15.0377 46.2128 15.4125 46.5875C15.7872 46.9623 15.9984 47.4701 16 48V47C16.0039 46.4708 16.2159 45.9644 16.5901 45.5901C16.9643 45.2159 17.4708 45.0039 18 45C18.5299 45.0016 19.0377 45.2128 19.4125 45.5875C19.7872 45.9623 19.9984 46.4701 20 47V47Z" fill="#FFC477"/>
<path d="M52 49C52.0016 48.4701 52.2128 47.9623 52.5875 47.5875C52.9623 47.2128 53.4701 47.0016 54 47C54.5292 47.0039 55.0356 47.2159 55.4099 47.5901C55.7841 47.9644 55.9961 48.4708 56 49V62H39.42L34.54 53.54C34.4074 53.3123 34.321 53.0607 34.2859 52.7995C34.2508 52.5384 34.2677 52.2729 34.3355 52.0183C34.4033 51.7637 34.5208 51.525 34.6812 51.3159C34.8416 51.1068 35.0417 50.9315 35.27 50.8C35.5703 50.624 35.9119 50.5308 36.26 50.53C36.6134 50.5296 36.9606 50.6229 37.2662 50.8003C37.5719 50.9777 37.8251 51.2329 38 51.54L40 55V47C40.0016 46.4701 40.2128 45.9623 40.5875 45.5875C40.9623 45.2128 41.4701 45.0016 42 45C42.5292 45.0039 43.0356 45.2159 43.4099 45.5901C43.7841 45.9644 43.9961 46.4708 44 47C44.0016 46.4701 44.2128 45.9623 44.5875 45.5875C44.9623 45.2128 45.4701 45.0016 46 45C46.5292 45.0039 47.0356 45.2159 47.4099 45.5901C47.7841 45.9644 47.9961 46.4708 48 47V48C48.0016 47.4701 48.2128 46.9623 48.5875 46.5875C48.9623 46.2128 49.4701 46.0016 50 46C50.5292 46.0039 51.0356 46.2159 51.4099 46.5901C51.7841 46.9644 51.9961 47.4708 52 48V49Z" fill="#FFC477"/>
<path d="M17 42H15V44H17V42Z" fill="#898890"/>
<path d="M13 42H11V44H13V42Z" fill="#898890"/>
<path d="M21 42H19V44H21V42Z" fill="#898890"/>
<path d="M25 42H23V44H25V42Z" fill="#898890"/>
<path d="M29 42H27V44H29V42Z" fill="#898890"/>
<path d="M33 42H31V44H33V42Z" fill="#898890"/>
<path d="M37 42H35V44H37V42Z" fill="#898890"/>
<path d="M41 42H39V44H41V42Z" fill="#898890"/>
<path d="M45 42H43V44H45V42Z" fill="#898890"/>
<path d="M49 42H47V44H49V42Z" fill="#898890"/>
<path d="M53 42H51V44H53V42Z" fill="#898890"/>
<path d="M40 23H38V26H40V23Z" fill="#CC7400"/>
<path d="M44 23H42V26H44V23Z" fill="#CC7400"/>
<path d="M36 23H34V26H36V23Z" fill="#CC7400"/>
<path d="M40 29H38V32H40V29Z" fill="#EE8700"/>
<path d="M44 29H42V32H44V29Z" fill="#EE8700"/>
<path d="M36 29H34V32H36V29Z" fill="#EE8700"/>
<path d="M22 16H20C19.7348 16 19.4804 15.8946 19.2929 15.7071C19.1054 15.5196 19 15.2652 19 15C19 14.7348 19.1054 14.4804 19.2929 14.2929C19.4804 14.1054 19.7348 14 20 14H22C22.2652 14 22.5196 14.1054 22.7071 14.2929C22.8946 14.4804 23 14.7348 23 15H25C25 14.2044 24.6839 13.4413 24.1213 12.8787C23.5587 12.3161 22.7956 12 22 12V11H20V12C19.2044 12 18.4413 12.3161 17.8787 12.8787C17.3161 13.4413 17 14.2044 17 15C17 15.7956 17.3161 16.5587 17.8787 17.1213C18.4413 17.6839 19.2044 18 20 18H22C22.2652 18 22.5196 18.1054 22.7071 18.2929C22.8946 18.4804 23 18.7348 23 19C23 19.2652 22.8946 19.5196 22.7071 19.7071C22.5196 19.8946 22.2652 20 22 20H20C19.7348 20 19.4804 19.8946 19.2929 19.7071C19.1054 19.5196 19 19.2652 19 19H17C17 19.7956 17.3161 20.5587 17.8787 21.1213C18.4413 21.6839 19.2044 22 20 22V23H22V22C22.7956 22 23.5587 21.6839 24.1213 21.1213C24.6839 20.5587 25 19.7956 25 19C25 18.2044 24.6839 17.4413 24.1213 16.8787C23.5587 16.3161 22.7956 16 22 16V16Z" fill="#FF5023"/>
<path d="M18 26H16V28H18V26Z" fill="#1E81CE"/>
<path d="M26 26H20V28H26V26Z" fill="#1E81CE"/>
<path d="M26 30H16V32H26V30Z" fill="#1E81CE"/>
<path d="M44 47C43.7348 47 43.4804 47.1054 43.2929 47.2929C43.1054 47.4804 43 47.7348 43 48V52C43 52.2652 43.1054 52.5196 43.2929 52.7071C43.4804 52.8946 43.7348 53 44 53C44.2652 53 44.5196 52.8946 44.7071 52.7071C44.8946 52.5196 45 52.2652 45 52V48C45 47.7348 44.8946 47.4804 44.7071 47.2929C44.5196 47.1054 44.2652 47 44 47Z" fill="#FFB655"/>
<path d="M48 47C47.7348 47 47.4804 47.1054 47.2929 47.2929C47.1054 47.4804 47 47.7348 47 48V52C47 52.2652 47.1054 52.5196 47.2929 52.7071C47.4804 52.8946 47.7348 53 48 53C48.2652 53 48.5196 52.8946 48.7071 52.7071C48.8946 52.5196 49 52.2652 49 52V48C49 47.7348 48.8946 47.4804 48.7071 47.2929C48.5196 47.1054 48.2652 47 48 47Z" fill="#FFB655"/>
<path d="M52 48C51.7348 48 51.4804 48.1054 51.2929 48.2929C51.1054 48.4804 51 48.7348 51 49V52C51 52.2652 51.1054 52.5196 51.2929 52.7071C51.4804 52.8946 51.7348 53 52 53C52.2652 53 52.5196 52.8946 52.7071 52.7071C52.8946 52.5196 53 52.2652 53 52V49C53 48.7348 52.8946 48.4804 52.7071 48.2929C52.5196 48.1054 52.2652 48 52 48Z" fill="#FFB655"/>
<path d="M20 47C20.2652 47 20.5196 47.1054 20.7071 47.2929C20.8946 47.4804 21 47.7348 21 48V52C21 52.2652 20.8946 52.5196 20.7071 52.7071C20.5196 52.8946 20.2652 53 20 53C19.7348 53 19.4804 52.8946 19.2929 52.7071C19.1054 52.5196 19 52.2652 19 52V48C19 47.7348 19.1054 47.4804 19.2929 47.2929C19.4804 47.1054 19.7348 47 20 47Z" fill="#FFB655"/>
<path d="M16 47C16.2652 47 16.5196 47.1054 16.7071 47.2929C16.8946 47.4804 17 47.7348 17 48V52C17 52.2652 16.8946 52.5196 16.7071 52.7071C16.5196 52.8946 16.2652 53 16 53C15.7348 53 15.4804 52.8946 15.2929 52.7071C15.1054 52.5196 15 52.2652 15 52V48C15 47.7348 15.1054 47.4804 15.2929 47.2929C15.4804 47.1054 15.7348 47 16 47V47Z" fill="#FFB655"/>
<path d="M12 48C12.2652 48 12.5196 48.1054 12.7071 48.2929C12.8946 48.4804 13 48.7348 13 49V52C13 52.2652 12.8946 52.5196 12.7071 52.7071C12.5196 52.8946 12.2652 53 12 53C11.7348 53 11.4804 52.8946 11.2929 52.7071C11.1054 52.5196 11 52.2652 11 52V49C11 48.7348 11.1054 48.4804 11.2929 48.2929C11.4804 48.1054 11.7348 48 12 48V48Z" fill="#FFB655"/>
<path d="M41 18H39V23H41V18Z" fill="#3D9AE2"/>
<path d="M40 18H38V23H40V18Z" fill="#00B39D"/>
<path d="M45 14V16C45 17.0609 44.5786 18.0783 43.8284 18.8284C43.0783 19.5786 42.0609 20 41 20H39V18C39 16.9391 39.4214 15.9217 40.1716 15.1716C40.9217 14.4214 41.9391 14 43 14H45Z" fill="#00CCB3"/>
<path d="M39 16V18H37C35.9391 18 34.9217 17.5786 34.1716 16.8284C33.4214 16.0783 33 15.0609 33 14V12H35C36.0609 12 37.0783 12.4214 37.8284 13.1716C38.5786 13.9217 39 14.9391 39 16Z" fill="#00CCB3"/>
</svg>
