<?xml version="1.0" encoding="iso-8859-1"?>
<!-- Generator: Adobe Illustrator 19.0.0, SVG Export Plug-In . SVG Version: 6.00 Build 0)  -->
<svg version="1.1" xmlns="http://www.w3.org/2000/svg" xmlns:xlink="http://www.w3.org/1999/xlink" x="0px" y="0px"
	 viewBox="0 0 512 512" style="enable-background:new 0 0 512 512;" xml:space="preserve">
<g id="_x34_94_x2C__engineering_x2C__project_x2C__tools_x2C__workshop_x2C__processing">
	<g id="XMLID_18628_">
		<path id="XMLID_18629_" style="fill-rule:evenodd;clip-rule:evenodd;" d="M228.664,161.771l-22.099,21.278l22.099,21.308V161.771z
			 M249.04,294.455l22.1-21.308l-22.1-21.278V294.455z M278.524,275.666l-30.561,29.457c-1.386,1.303-3.566,1.275-4.896-0.113
			c-0.649-0.65-0.961-1.527-0.961-2.404v-15.423c-18.874-0.82-35.881-8.828-48.386-21.307
			c-13.217-13.243-21.393-31.495-21.393-51.643c0-1.924,1.555-3.48,3.481-3.48c1.923,0,3.477,1.557,3.477,3.48
			c0,18.251,7.388,34.777,19.327,46.719c11.265,11.233,26.518,18.449,43.493,19.27V269.44c-13.979-0.82-26.542-6.819-35.853-16.101
			c-10.016-10.045-16.214-23.854-16.214-39.106c0-1.924,1.558-3.48,3.481-3.48c1.923,0,3.482,1.557,3.482,3.48
			c0,13.356,5.404,25.439,14.146,34.183c8.037,8.037,18.874,13.243,30.929,14.063V243.69c0-1.895,1.559-3.452,3.481-3.452
			c1.046,0,1.98,0.452,2.604,1.16l30.361,29.259c1.386,1.33,1.418,3.538,0.088,4.896L278.524,275.666z M441.062,317.065l4.415,4.442
			l17.713-17.715l-4.411-4.441L441.062,317.065z M450.401,326.432l16.383,16.355c0.453,0.453,1.05,0.68,1.643,0.68
			c0.593,0,1.189-0.227,1.642-0.68l15.873-15.848l0.057-0.226l-0.057-0.169l-17.828-17.828L450.401,326.432z M344.713,185.314
			l-6.397,6.367l99.182,99.209c1.358,1.358,1.358,3.566,0,4.924c-1.33,1.358-3.537,1.358-4.895,0l-99.207-99.209L326.997,203
			c36.39,36.39,72.752,72.779,109.142,109.142l17.717-17.714C417.465,258.065,381.103,221.676,344.713,185.314z M322.073,198.076
			l17.716-17.686l-9.959-9.989l-27.508-9.792l9.792,27.506L322.073,198.076z M230.703,82.736l-10.016-5.771
			c-16.214,28.099-32.431,56.17-48.645,84.268l9.992,5.773C198.276,138.906,214.489,110.836,230.703,82.736z M214.686,44.648
			l46.975,27.109l5.573-9.65L220.262,35L214.686,44.648z M258.207,77.757l-46.971-27.109l-5.577,9.649
			c15.677,9.027,31.298,18.054,46.975,27.109L258.207,77.757z M100.48,323.092h30.617V173.825H100.48v14.29h6.31
			c1.923,0,3.481,1.557,3.481,3.452c0,1.924-1.558,3.48-3.481,3.48h-6.31v12.536h12.904c1.896,0,3.45,1.584,3.45,3.48
			c0,1.924-1.555,3.48-3.45,3.48H100.48v12.535h6.31c1.923,0,3.481,1.584,3.481,3.48c0,1.924-1.558,3.48-3.481,3.48h-6.31v12.536
			h12.904c1.896,0,3.45,1.585,3.45,3.48c0,1.924-1.555,3.48-3.45,3.48H100.48v12.535h6.31c1.923,0,3.481,1.556,3.481,3.48
			c0,1.925-1.558,3.48-3.481,3.48h-6.31v12.536h12.904c1.896,0,3.45,1.557,3.45,3.48s-1.555,3.48-3.45,3.48H100.48v12.536h6.31
			c1.923,0,3.481,1.556,3.481,3.48c0,1.924-1.558,3.48-3.481,3.48h-6.31V323.092z M402.721,233.475v-100.34H209.594l-23.289,40.351
			l-0.084,0.142c-0.085,0.143-0.2,0.283-0.313,0.424l-0.056,0.058l0,0l-0.056,0.056h-0.028l-0.028,0.029l-0.028,0.028l-0.028,0.028
			l-0.028,0.027v0.028l-0.056,0.029v0.028l-0.06,0.027l-0.056,0.057h-0.028l-0.112,0.085v0.028l-0.056,0.029l-0.313,0.197
			l-0.084,0.028l-0.056,0.028l-0.028,0.027l-0.056,0.029l0,0h-0.028l-0.06,0.028l0,0h-0.028l-0.028,0.028l0,0h-0.056l-0.028,0.027
			l0,0l-0.028,0.029h-0.056l0,0h-0.028l-0.028,0.028h-0.028h-0.028l-0.028,0.028l0,0h-0.06l-0.028,0.027l0,0h-0.056h-0.028l0,0
			l-0.028,0.029h-0.056l0,0h-0.028h-0.056v0.028h-0.028h-0.056l0,0h-0.028l-0.028,0.028h-0.031h-0.028h-0.028l0,0H183.7h-0.028
			h-0.028h-0.028h-0.028h-0.028l0,0h-0.056l-0.028,0.027l0,0h-0.056h-0.028c-0.313,0-0.653-0.027-0.965-0.113l-0.028-0.027h-0.028
			h-0.056h-0.028v-0.028h-0.056h-0.028l-0.028-0.028h-0.056v-0.029h-0.056v-0.027h-0.028l-0.06-0.028h-0.056l-0.028-0.028h-0.028
			l-0.056-0.029l0,0l-0.028-0.027l-0.056-0.028l0,0l-0.057-0.028l0,0l-0.056-0.028l-0.028-0.028l-16.018-9.225l-0.084-0.057
			l-0.056-0.057l-0.088-0.057l-0.084-0.028l-0.056-0.056l0,0l-0.085-0.058l-0.056-0.056l0,0l-0.056-0.058l-0.056-0.056l0,0
			l-0.087-0.058l0,0l-0.056-0.056l0,0l-0.056-0.057l0,0l-0.056-0.086l0,0l-0.056-0.057l0,0l-0.056-0.057l0,0l-0.028-0.084h-0.028
			l-0.028-0.057l0,0l-0.059-0.057l0,0l-0.028-0.085h-0.028l-0.028-0.058v-0.027l-0.056-0.057l0,0l-0.028-0.057v-0.028l-0.028-0.058
			h-0.028l-0.028-0.084l0,0l-0.084-0.227l0,0l-0.028-0.084l-0.028-0.028v-0.029l-0.032-0.084l0,0l-0.028-0.085l0,0l-0.028-0.086
			l-0.028-0.084l0,0v-0.057v-0.028l-0.028-0.057v-0.028v-0.057l-0.028-0.084v-0.086l0,0l-0.028-0.085v-0.085l0,0v-0.084l0,0v-0.086
			v-0.057v-0.027v-0.029v-0.057l0,0v-0.084l0,0v-0.057v-0.028v-0.028v-0.057l0,0l0.028-0.057v-0.085v-0.028v-0.029l0.028-0.027
			v-0.028v-0.057l0.028-0.085l0,0v-0.057l0.028-0.027v-0.029v-0.057l0,0l0.028-0.085l0.028-0.085l0,0l0.032-0.084l0,0
			c0.056-0.199,0.14-0.396,0.253-0.566l15.961-27.617H74.955v189.957H93.52v-14.46v-0.084v-0.085v-19.327v-0.085v-0.085v-19.327
			v-0.085v-0.085v-19.326v-0.085v-0.085v-19.299v-0.113v-0.084v-19.299v-0.113v-0.086v-19.298v-0.113v-0.085v-21.138
			c0-1.925,1.555-3.481,3.478-3.481h37.58c1.923,0,3.481,1.557,3.481,3.481v152.747h264.662V288.57
			c-32.003-32.004-64.038-64.037-96.069-96.069c-0.369-0.368-0.649-0.82-0.821-1.302l-12.508-35.173l-0.028-0.028v-0.028
			l-0.028-0.028v-0.027l-0.028-0.029v-0.057v-0.027l-0.028-0.029v-0.028v-0.056v-0.029l-0.028-0.028v-0.028v-0.057v-0.028
			l-0.028-0.028v-0.027v-0.057v-0.029v-0.027l-0.028-0.029v-0.057v-0.027v-0.029v-0.027v-0.057v-0.029v-0.027v-0.057v-0.256v-0.027
			v-0.028v-0.057v-0.028v-0.027v-0.058v-0.028v-0.027l0.028-0.029v-0.057v-0.027v-0.029v-0.057l0.028-0.027v-0.029v-0.057v-0.027
			l0.028-0.029v-0.057v-0.027l0.028-0.029v-0.027v-0.057l0.028-0.029v-0.027l0.028-0.028v-0.058l0.028-0.027l0.028-0.086
			l0.028-0.084l0.031-0.085l0.028-0.085l0.056-0.057l0.028-0.084l0.056-0.086l0.028-0.085l0.056-0.056l0.028-0.086l0.056-0.056
			l0.056-0.085l0.06-0.057l0.056-0.057l0.028-0.086l0.084-0.056l0.057-0.057l0.056-0.057l0.057-0.057l0.056-0.056l0.06-0.058
			l0.056-0.056l0.084-0.058l0.056-0.056l0.085-0.029l0.056-0.057l0.056-0.057l0.087-0.027l0.056-0.057l0.085-0.029l0.084-0.057
			l0.056-0.027l0.085-0.029l0.087-0.027l0.057-0.029l0.084-0.057h0.084l0.085-0.027l0.085-0.028l0.06-0.028l0.084-0.029h0.085
			l0.084-0.027l0.084-0.028h0.087h0.085l0.084-0.028h0.085h0.084l0,0h0.084l0,0h0.088l0,0h0.084l0,0h0.085l0,0h0.084l0,0
			l0.084,0.028l0,0h0.087l0,0l0.084,0.028l0,0h0.084l0,0l0.085,0.027l0,0h0.084l0,0l0.088,0.029l0,0l0.085,0.028l0,0l0.084,0.028
			l0,0l0.084,0.027l0,0l34.947,12.451c0.566,0.17,1.074,0.453,1.499,0.877C357.049,187.805,379.885,210.64,402.721,233.475z
			 M409.68,295.531v31.041c0,1.897-1.555,3.48-3.478,3.48H136.249c-0.481,0.255-1.049,0.425-1.671,0.425h-37.58
			c-0.621,0-1.186-0.17-1.699-0.425H71.505c-1.926,0-3.481-1.584-3.481-3.48V129.654c0-1.925,1.555-3.481,3.481-3.481h112.764
			l8.233-14.29H71.758c-4.696,0-8.999,1.896-12.14,4.952l-0.168,0.169c-3.141,3.142-5.124,7.5-5.124,12.311v241.204
			c0,4.782,1.983,9.14,5.124,12.309c3.169,3.142,7.524,5.122,12.308,5.122H406.74c4.808,0,9.167-1.98,12.308-5.122
			c3.169-3.169,5.124-7.526,5.124-12.309V310.02L409.68,295.531z M409.68,129.654v110.781l14.491,14.488V129.314
			c0-4.811-1.955-9.169-5.124-12.311c-3.141-3.168-7.5-5.121-12.308-5.121H221.873l-8.205,14.205l-0.056,0.113l192.591-0.028
			C408.126,126.173,409.68,127.729,409.68,129.654z M280.054,394.91h-81.61l-14.235,27.053h110.076L280.054,394.91z
			 M350.314,428.895H178.468h-0.088h-50.196v9.621h222.13V428.895z M242.362,366.528c-0.794-0.792-1.896-1.273-3.113-1.273
			c-1.218,0-2.32,0.481-3.113,1.273c-0.793,0.792-1.274,1.896-1.274,3.112s0.481,2.32,1.274,3.112
			c0.793,0.792,1.895,1.274,3.113,1.274c1.162,0,2.207-0.425,2.973-1.132l0.141-0.143c0.793-0.792,1.274-1.896,1.274-3.112
			S243.155,367.32,242.362,366.528z M239.249,358.294c3.141,0,5.97,1.272,8.037,3.311c2.035,2.065,3.309,4.896,3.309,8.036
			c0,3.142-1.274,5.971-3.309,8.036l-0.285,0.227c-2.007,1.925-4.751,3.085-7.753,3.085c-3.113,0-5.97-1.273-8.008-3.34
			c-2.064-2.037-3.338-4.866-3.338-8.008c0-3.112,1.274-5.971,3.31-8.008C233.279,359.566,236.136,358.294,239.249,358.294z
			 M48.865,461.323c-1.923,0-3.481-1.557-3.481-3.452c0-1.924,1.558-3.48,3.481-3.48h257.334c1.923,0,3.482,1.557,3.482,3.48
			c0,1.896-1.559,3.452-3.482,3.452H48.865z M199.55,477c-1.927,0-3.481-1.557-3.481-3.48c0-1.924,1.555-3.48,3.481-3.48h178.071
			c1.924,0,3.482,1.557,3.482,3.48c0,1.924-1.559,3.48-3.482,3.48H199.55z M395.846,477c-1.899,0-3.482-1.557-3.482-3.48
			c0-1.924,1.582-3.48,3.482-3.48h22.268c1.923,0,3.481,1.557,3.481,3.48c0,1.924-1.559,3.48-3.481,3.48H395.846z M38.737,476.519
			c-1.927,0-3.481-1.556-3.481-3.48c0-1.924,1.555-3.48,3.481-3.48h84.379c1.899,0,3.482,1.557,3.482,3.48
			c0,1.925-1.583,3.48-3.482,3.48H38.737z M32.964,214.828c0,1.924-1.558,3.48-3.481,3.48c-1.923,0-3.481-1.557-3.481-3.48V111.459
			c0-7.357,3.029-14.035,7.868-18.903c4.84-4.839,11.515-7.838,18.874-7.838h59.423c1.896,0,3.454,1.556,3.454,3.48
			c0,1.925-1.558,3.482-3.454,3.482H52.743c-5.433,0-10.384,2.234-13.95,5.8c-3.594,3.594-5.829,8.546-5.829,13.979V214.828z
			 M425.755,91.68c-1.924,0-3.482-1.557-3.482-3.482c0-1.925,1.558-3.48,3.482-3.48c7.355,0,14.034,2.999,18.874,7.838
			c4.867,4.868,7.868,11.546,7.868,18.903v43.69c0,1.924-1.559,3.48-3.481,3.48c-1.923,0-3.481-1.557-3.481-3.48v-43.69
			c0-5.434-2.208-10.386-5.802-13.979C436.138,93.886,431.187,91.68,425.755,91.68z M199.181,180.56l30.561-29.457
			c1.387-1.33,3.566-1.274,4.896,0.113c0.649,0.651,0.961,1.528,0.961,2.405v15.422c18.874,0.82,35.909,8.828,48.389,21.308
			c13.213,13.215,21.391,31.466,21.391,51.642c0,1.925-1.555,3.48-3.481,3.48c-1.923,0-3.478-1.556-3.478-3.48
			c0-18.25-7.388-34.777-19.327-46.718c-11.262-11.233-26.515-18.45-43.465-19.27v10.781c13.95,0.82,26.514,6.819,35.825,16.102
			c10.016,10.045,16.214,23.854,16.214,39.105c0,1.925-1.558,3.48-3.481,3.48c-1.923,0-3.482-1.556-3.482-3.48
			c0-13.355-5.404-25.438-14.147-34.182c-8.037-8.037-18.874-13.244-30.929-14.064v18.762c0,1.924-1.558,3.48-3.481,3.48
			c-1.046,0-1.98-0.453-2.604-1.16l-30.361-29.26c-1.386-1.33-1.414-3.537-0.084-4.896L199.181,180.56z"/>
	</g>
</g>
<g id="Layer_1">
</g>
</svg>
